<?xml version="1.0" standalone="no"?>
<!DOCTYPE svg PUBLIC "-//W3C//DTD SVG 20010904//EN"
 "http://www.w3.org/TR/2001/REC-SVG-20010904/DTD/svg10.dtd">
<svg version="1.0" xmlns="http://www.w3.org/2000/svg"
 width="1000.000000pt" height="1000.000000pt" viewBox="0 0 1000.000000 1000.000000"
 preserveAspectRatio="xMidYMid meet">
<metadata>
Created by potrace 1.14, written by Peter Selinger 2001-2017
</metadata>
<g transform="translate(0.000000,1000.000000) scale(0.100000,-0.100000)"
fill="#000000" stroke="none">
<path d="M4575 8461 c-28 -10 -69 -29 -91 -43 -22 -14 -69 -41 -104 -59 -71
-36 -100 -39 -340 -29 -101 5 -107 4 -157 -24 -28 -16 -87 -60 -130 -99 -103
-93 -152 -114 -300 -132 -65 -8 -135 -20 -156 -26 -53 -17 -107 -67 -176 -162
-93 -129 -122 -150 -289 -209 -171 -60 -198 -84 -278 -254 -64 -136 -101 -179
-213 -246 -172 -103 -190 -127 -236 -318 -15 -63 -36 -131 -46 -151 -10 -20
-53 -69 -95 -110 -127 -121 -136 -132 -161 -185 -19 -43 -24 -73 -29 -190 -3
-77 -12 -160 -20 -186 -8 -25 -41 -84 -74 -131 -114 -164 -123 -203 -91 -367
12 -58 21 -130 21 -160 -1 -55 -6 -73 -75 -250 -46 -118 -45 -161 13 -310 64
-165 67 -184 47 -297 -25 -138 -29 -226 -15 -278 7 -24 46 -93 86 -152 91
-131 104 -172 104 -318 0 -178 9 -197 151 -337 135 -132 143 -146 183 -320 40
-171 56 -192 231 -301 122 -75 155 -112 215 -242 84 -179 106 -198 297 -260
133 -44 169 -71 267 -204 103 -141 155 -172 328 -191 172 -20 203 -33 323
-140 39 -34 90 -74 115 -88 45 -27 46 -27 246 -27 l201 0 138 -70 c170 -86
200 -89 370 -35 144 46 196 46 340 0 125 -39 219 -46 270 -19 17 9 79 42 139
73 l109 57 191 -3 c223 -4 220 -4 336 98 138 122 170 137 341 155 167 17 207
42 330 207 82 109 123 138 258 183 186 61 207 80 294 258 71 146 99 178 229
254 98 58 158 114 181 170 8 18 24 77 36 132 33 151 48 176 170 295 146 142
152 155 161 351 9 179 16 203 105 329 105 150 113 189 75 389 -26 136 -22 170
40 316 72 169 71 207 -6 402 -43 106 -48 126 -47 193 0 41 8 108 17 148 22
100 20 186 -4 240 -11 24 -44 78 -74 120 -96 137 -99 147 -106 317 -7 197 -19
224 -159 353 -116 108 -140 149 -172 297 -11 55 -30 119 -41 142 -26 56 -87
110 -189 169 -118 68 -151 105 -219 248 -83 170 -116 200 -270 246 -77 23
-148 56 -187 87 -13 10 -60 68 -106 128 -98 130 -144 160 -267 176 -221 28
-239 35 -345 129 -87 77 -140 114 -185 129 -23 7 -102 10 -220 8 l-185 -2 -70
38 c-172 93 -196 102 -265 101 -46 0 -95 -10 -170 -34 -143 -47 -206 -46 -358
3 -127 41 -165 44 -237 18z m-853 -1736 c3 -3 -12 -76 -34 -163 -77 -311 -128
-608 -128 -744 l0 -61 -47 7 c-26 3 -57 13 -69 21 -20 13 -27 13 -58 0 -74
-31 -132 -12 -167 56 -26 52 -26 198 1 356 21 123 96 441 109 462 19 30 149
-25 136 -57 -62 -148 -138 -538 -121 -624 8 -43 22 -50 63 -33 27 12 32 19 38
67 19 156 97 551 132 671 3 10 19 25 36 32 32 14 99 20 109 10z m438 -29 c0
-46 -18 -98 -42 -118 -14 -12 -37 -18 -73 -18 -30 0 -57 -5 -63 -12 -26 -32
-100 -452 -123 -701 -8 -85 -17 -131 -25 -134 -22 -8 -103 34 -115 61 -14 29
6 190 52 421 41 212 53 251 88 291 17 19 29 40 25 45 -7 12 -59 3 -131 -22
l-53 -18 0 32 c0 38 30 105 56 129 37 32 233 75 352 77 l52 1 0 -34z m207 14
c41 -25 51 -45 69 -136 36 -190 0 -427 -97 -634 -66 -141 -144 -199 -223 -166
-45 19 -63 48 -81 132 -27 125 -12 306 40 485 78 272 182 386 292 319z m783
16 c0 -2 -20 -123 -44 -268 -38 -228 -61 -393 -82 -606 -5 -47 -9 -55 -42 -77
-21 -14 -52 -27 -70 -31 -29 -6 -32 -4 -32 17 0 28 37 358 45 407 23 130 -83
-150 -129 -344 l-18 -72 -34 8 c-79 18 -102 71 -114 263 -5 78 -10 153 -10
167 0 13 -4 20 -8 15 -14 -16 -72 -364 -72 -429 l0 -58 -27 7 c-38 9 -70 30
-89 60 -14 21 -14 37 -4 132 14 140 43 308 86 513 44 209 40 196 78 225 36 28
141 54 156 39 6 -6 6 -76 0 -179 -9 -175 -3 -326 15 -332 6 -1 36 75 69 170
32 94 74 210 95 257 34 80 38 85 81 102 39 15 150 25 150 14z m830 -31 c0 -45
-27 -113 -51 -125 -10 -6 -39 -10 -66 -10 -26 0 -53 -4 -59 -8 -24 -16 -97
-414 -123 -667 l-17 -170 -34 2 c-34 1 -75 26 -94 55 -12 20 3 156 40 358 45
244 66 321 96 356 15 17 28 37 28 43 0 14 -51 6 -127 -20 -29 -10 -55 -14 -57
-10 -8 12 14 94 35 127 23 38 64 56 174 78 92 18 129 22 203 24 l52 2 0 -35z
m629 9 c51 -43 66 -111 65 -299 -1 -139 -4 -172 -27 -255 -50 -183 -124 -326
-189 -364 -42 -26 -100 -26 -135 0 -49 36 -67 108 -67 264 1 207 53 417 142
570 62 108 144 140 211 84z m609 -20 c-45 -102 -110 -418 -148 -718 -15 -116
-25 -165 -38 -179 -21 -24 -73 -47 -105 -47 -22 0 -26 7 -41 78 -9 44 -26 145
-36 227 -18 144 -25 172 -34 144 -9 -29 -37 -233 -43 -319 l-6 -90 -53 -26
c-83 -40 -88 -34 -80 94 8 136 26 260 78 542 46 253 47 257 136 290 85 32 87
30 88 -107 1 -129 21 -323 34 -323 9 0 17 38 45 195 9 50 26 125 37 169 20 75
22 79 62 97 23 10 60 19 83 19 l42 0 -21 -46z m-3989 20 c2 -2 -1 -48 -8 -101
-31 -254 -43 -405 -46 -608 l-4 -220 -33 -18 c-18 -10 -49 -16 -68 -15 l-35 3
0 103 0 103 -34 -6 c-69 -13 -78 -21 -90 -75 -6 -28 -11 -61 -11 -73 0 -15
-11 -28 -32 -39 -62 -32 -85 -38 -104 -24 -16 12 -16 19 10 137 30 136 104
410 136 504 12 36 35 75 57 97 l37 38 -32 0 c-18 0 -48 -7 -67 -14 -19 -8 -35
-11 -35 -6 0 20 42 120 61 144 41 52 260 104 298 70z m2288 3 c0 -1 -7 -67
-17 -147 -30 -234 -40 -389 -40 -590 l0 -190 -26 -17 c-15 -9 -47 -17 -73 -17
l-46 -1 1 103 0 104 -35 -7 c-20 -4 -46 -13 -58 -20 -21 -14 -26 -27 -38 -113
-6 -36 -12 -45 -43 -61 -36 -18 -62 -25 -91 -22 -22 2 -8 103 43 301 78 305
110 398 153 443 l38 40 -40 -7 c-22 -3 -52 -8 -67 -12 -26 -6 -27 -5 -19 22
14 49 41 107 58 126 34 38 209 83 273 71 14 -2 26 -5 27 -6z m820 -41 c-5 -53
-30 -114 -51 -128 -6 -4 -28 -8 -48 -8 -25 0 -40 -6 -46 -17 -18 -33 -91 -474
-92 -547 0 -25 2 -28 26 -22 85 22 84 22 84 -20 -1 -61 -32 -120 -77 -142 -67
-34 -238 -68 -263 -52 -16 10 -8 133 10 155 7 8 24 15 39 15 14 0 31 4 37 8 6
4 18 63 28 132 9 69 30 187 45 263 23 114 32 142 54 165 15 15 27 31 27 35 0
12 -54 8 -106 -8 -65 -20 -64 -20 -64 18 1 49 35 114 72 137 50 31 203 67 292
69 l39 1 -6 -54z m227 -1196 c14 -5 26 -15 26 -21 0 -7 -28 -60 -62 -118 -66
-112 -301 -560 -445 -849 l-87 -172 28 -158 c47 -264 120 -538 180 -673 10
-23 -46 -93 -99 -125 -58 -34 -125 -43 -159 -20 -33 21 -53 89 -112 382 -26
129 -50 234 -53 234 -3 0 -25 -37 -48 -82 -40 -80 -42 -90 -63 -273 -25 -217
-24 -216 -123 -261 -74 -33 -149 -43 -173 -23 -15 12 -16 30 -11 134 4 66 9
145 12 175 5 51 4 50 -9 -15 -44 -223 -144 -319 -331 -318 -92 0 -148 27 -220
105 -80 86 -131 198 -167 363 -19 90 -16 397 6 515 51 279 161 530 347 795
117 166 368 395 432 395 28 0 77 -187 77 -296 0 -74 -14 -97 -84 -143 -260
-169 -441 -438 -507 -752 -16 -77 -22 -142 -23 -249 -1 -140 0 -147 28 -203
70 -143 190 -160 366 -52 40 25 75 44 77 41 2 -2 8 -32 12 -67 5 -36 9 -50 10
-31 2 58 80 590 126 857 77 455 141 734 178 781 33 43 112 74 188 74 110 0
110 1 55 -190 -41 -144 -146 -627 -146 -672 0 -52 48 28 201 336 243 491 274
538 361 569 49 18 174 22 212 7z m594 -54 c63 -95 96 -276 63 -354 -9 -22 -33
-44 -75 -69 -87 -52 -174 -122 -244 -197 -118 -127 -166 -222 -167 -331 0 -60
5 -78 33 -130 18 -33 66 -102 106 -154 107 -135 129 -179 134 -271 8 -144 -75
-326 -213 -466 -85 -86 -176 -141 -251 -151 -50 -6 -97 24 -142 92 -29 44 -80
181 -71 189 2 2 43 22 90 45 160 75 259 198 259 319 0 70 -18 99 -119 191 -61
55 -88 88 -112 137 -117 237 34 607 399 978 106 107 250 228 267 223 5 -2 25
-25 43 -51z m-3308 -19 c74 -39 85 -47 82 -68 -2 -13 -32 -154 -67 -314 -92
-420 -151 -730 -185 -964 -31 -219 -60 -501 -60 -587 0 -28 -3 -66 -6 -84 l-7
-32 -58 6 c-75 9 -116 23 -157 53 -60 45 -67 70 -67 243 1 157 11 245 61 524
14 76 23 140 21 143 -5 4 -245 -52 -252 -59 -12 -11 -114 -812 -115 -895 0
-36 -169 -16 -231 28 -57 40 -60 57 -43 240 42 458 113 927 217 1444 l62 310
61 -1 c40 0 83 -9 120 -24 51 -21 124 -58 124 -64 0 -1 -32 -163 -70 -360 -39
-197 -69 -360 -67 -362 2 -2 37 5 78 16 41 11 96 25 123 30 27 6 52 12 54 15
5 5 134 598 158 729 l17 89 61 -6 c46 -4 82 -17 146 -50z m856 10 c2 -7 -9
-121 -26 -252 -28 -230 -57 -499 -81 -765 -6 -69 -13 -318 -16 -555 -3 -364
-6 -432 -19 -446 -26 -28 -129 -69 -192 -75 -53 -6 -62 -4 -82 16 -23 23 -23
24 -18 231 7 238 16 219 -92 194 -114 -26 -135 -40 -153 -98 -18 -58 -36 -159
-39 -227 l-3 -44 -95 -48 c-107 -54 -164 -67 -195 -44 -31 23 -23 109 39 382
76 338 245 944 314 1124 5 14 42 53 81 88 39 35 71 70 71 78 0 34 -78 26 -204
-20 l-66 -24 0 23 c0 27 53 182 81 236 43 86 104 132 232 176 149 52 450 84
463 50z"/>
<path d="M4273 6512 c-20 -13 -71 -132 -93 -216 -35 -139 -37 -332 -2 -344 19
-6 71 87 103 188 25 76 32 118 36 210 6 140 -7 186 -44 162z"/>
<path d="M6497 6502 c-23 -25 -65 -131 -87 -219 -34 -130 -36 -319 -4 -330 29
-10 102 150 130 281 25 119 17 286 -14 286 -5 0 -16 -8 -25 -18z"/>
<path d="M3061 6428 c-5 -13 -18 -47 -30 -75 -23 -60 -71 -224 -71 -246 0 -22
80 0 81 22 0 9 8 85 18 169 9 83 16 152 14 152 -2 0 -7 -10 -12 -22z"/>
<path d="M5317 6353 c-32 -86 -77 -235 -77 -254 0 -4 18 -2 40 3 34 9 40 15
45 42 8 51 34 301 31 304 -2 1 -20 -41 -39 -95z"/>
<path d="M4346 4815 c-84 -195 -160 -417 -206 -607 -16 -67 -28 -123 -27 -124
3 -3 167 28 175 32 5 3 82 718 78 729 -2 6 -11 -8 -20 -30z"/>
</g>
</svg>
